<svg xmlns="http://www.w3.org/2000/svg" viewBox="0 0 64 64">
  <!-- Skull -->
  <ellipse cx="32" cy="26" rx="22" ry="24" fill="#CC2222"/>
  <!-- Eyes - angular and menacing -->
  <path d="M16 20 L22 18 L28 20 L28 28 L22 30 L16 28Z" fill="#000"/>
  <path d="M48 20 L42 18 L36 20 L36 28 L42 30 L48 28Z" fill="#000"/>
  <!-- Nose -->
  <polygon points="32,31 28,38 36,38" fill="#000"/>
  <!-- Teeth - elongated fangs -->
  <rect x="19" y="42" width="4" height="12" rx="1" fill="#CC2222"/>
  <rect x="25" y="42" width="4" height="8" rx="1" fill="#CC2222"/>
  <rect x="31" y="42" width="4" height="8" rx="1" fill="#CC2222"/>
  <rect x="37" y="42" width="4" height="8" rx="1" fill="#CC2222"/>
  <rect x="43" y="42" width="4" height="12" rx="1" fill="#CC2222"/>
  <!-- Jaw bridge -->
  <rect x="19" y="42" width="28" height="3" fill="#CC2222"/>
</svg>
